REM DIRINDEX 1\2,1\3
REM DIRNAME folder01,folder02,folder03
TITLE ""
FILE "2000 phrasesTrack07.mp3" MP3
  TRACK 01 AUDIO
    TITLE "2:cjc143_0232"
    INDEX 01 00:00:00
  TRACK 02 AUDIO
    TITLE "0:"
    INDEX 01 00:00:52
  TRACK 03 AUDIO
    TITLE "2:cjc143_0233"
    INDEX 01 00:01:22
  TRACK 04 AUDIO
    TITLE "0:"
    INDEX 01 00:02:30
  TRACK 05 AUDIO
    TITLE "2:cjc143_0234"
    INDEX 01 00:02:73
  TRACK 06 AUDIO
    TITLE "0:"
    INDEX 01 00:04:07
  TRACK 07 AUDIO
    TITLE "2:cjc143_0235"
    INDEX 01 00:04:50
  TRACK 08 AUDIO
    TITLE "0:"
    INDEX 01 00:05:61
  TRACK 09 AUDIO
    TITLE "2:cjc143_0236"
    INDEX 01 00:06:30
  TRACK 10 AUDIO
    TITLE "0:"
    INDEX 01 00:07:41
  TRACK 11 AUDIO
    TITLE "2:cjc143_0237"
    INDEX 01 00:08:09
  TRACK 12 AUDIO
    TITLE "0:"
    INDEX 01 00:09:38
  TRACK 13 AUDIO
    TITLE "2:cjc143_0238"
    INDEX 01 00:10:08
  TRACK 14 AUDIO
    TITLE "0:"
    INDEX 01 00:11:17
  TRACK 15 AUDIO
    TITLE "2:cjc143_0239"
    INDEX 01 00:11:60
  TRACK 16 AUDIO
    TITLE "0:"
    INDEX 01 00:13:06
  TRACK 17 AUDIO
    TITLE "2:cjc143_0240"
    INDEX 01 00:13:49
  TRACK 18 AUDIO
    TITLE "0:"
    INDEX 01 00:14:68
  TRACK 19 AUDIO
    TITLE "2:cjc143_0241"
    INDEX 01 00:15:36
  TRACK 20 AUDIO
    TITLE "0:"
    INDEX 01 00:16:42
  TRACK 21 AUDIO
    TITLE "2:cjc143_0242"
    INDEX 01 00:17:08
  TRACK 22 AUDIO
    TITLE "0:"
    INDEX 01 00:18:35
  TRACK 23 AUDIO
    TITLE "2:cjc143_0243"
    INDEX 01 00:19:11
  TRACK 24 AUDIO
    TITLE "0:"
    INDEX 01 00:20:36
  TRACK 25 AUDIO
    TITLE "2:cjc143_0244"
    INDEX 01 00:21:04
  TRACK 26 AUDIO
    TITLE "0:"
    INDEX 01 00:22:11
  TRACK 27 AUDIO
    TITLE "2:cjc143_0245"
    INDEX 01 00:22:54
  TRACK 28 AUDIO
    TITLE "0:"
    INDEX 01 00:23:65
  TRACK 29 AUDIO
    TITLE "2:cjc143_0246"
    INDEX 01 00:24:35
  TRACK 30 AUDIO
    TITLE "0:"
    INDEX 01 00:26:13
  TRACK 31 AUDIO
    TITLE "2:cjc143_0247"
    INDEX 01 00:26:56
  TRACK 32 AUDIO
    TITLE "0:"
    INDEX 01 00:28:00
  TRACK 33 AUDIO
    TITLE "2:cjc143_0248"
    INDEX 01 00:28:43
  TRACK 34 AUDIO
    TITLE "0:"
    INDEX 01 00:29:62
  TRACK 35 AUDIO
    TITLE "2:cjc143_0249"
    INDEX 01 00:30:28
  TRACK 36 AUDIO
    TITLE "0:"
    INDEX 01 00:31:51
  TRACK 37 AUDIO
    TITLE "2:cjc143_0250"
    INDEX 01 00:32:27
  TRACK 38 AUDIO
    TITLE "0:"
    INDEX 01 00:33:66
  TRACK 39 AUDIO
    TITLE "2:cjc143_0251"
    INDEX 01 00:34:42
  TRACK 40 AUDIO
    TITLE "0:"
    INDEX 01 00:35:74
  TRACK 41 AUDIO
    TITLE "2:cjc143_0252"
    INDEX 01 00:36:44
  TRACK 42 AUDIO
    TITLE "0:"
    INDEX 01 00:37:56
  TRACK 43 AUDIO
    TITLE "2:cjc143_0253"
    INDEX 01 00:38:24
  TRACK 44 AUDIO
    TITLE "0:"
    INDEX 01 00:39:47
  TRACK 45 AUDIO
    TITLE "2:cjc143_0254"
    INDEX 01 00:40:15
  TRACK 46 AUDIO
    TITLE "0:"
    INDEX 01 00:41:22
  TRACK 47 AUDIO
    TITLE "2:cjc143_0255"
    INDEX 01 00:42:14
  TRACK 48 AUDIO
    TITLE "0:"
    INDEX 01 00:43:27
  TRACK 49 AUDIO
    TITLE "2:cjc143_0256"
    INDEX 01 00:43:72
  TRACK 50 AUDIO
    TITLE "0:"
    INDEX 01 00:45:30
  TRACK 51 AUDIO
    TITLE "2:cjc143_0257"
    INDEX 01 00:46:04
  TRACK 52 AUDIO
    TITLE "0:"
    INDEX 01 00:47:54
  TRACK 53 AUDIO
    TITLE "2:cjc143_0258"
    INDEX 01 00:48:36
  TRACK 54 AUDIO
    TITLE "0:"
    INDEX 01 00:49:63
  TRACK 55 AUDIO
    TITLE "2:cjc143_0259"
    INDEX 01 00:50:31
  TRACK 56 AUDIO
    TITLE "0:"
    INDEX 01 00:51:44
  TRACK 57 AUDIO
    TITLE "2:cjc143_0260"
    INDEX 01 00:52:12
  TRACK 58 AUDIO
    TITLE "0:"
    INDEX 01 00:53:41
  TRACK 59 AUDIO
    TITLE "2:cjc143_0261"
    INDEX 01 00:54:15
  TRACK 60 AUDIO
    TITLE "0:"
    INDEX 01 00:55:44
  TRACK 61 AUDIO
    TITLE "2:cjc143_0262"
    INDEX 01 00:56:14
  TRACK 62 AUDIO
    TITLE "0:"
    INDEX 01 00:57:33
  TRACK 63 AUDIO
    TITLE "2:cjc143_0263"
    INDEX 01 00:58:07
  TRACK 64 AUDIO
    TITLE "0:"
    INDEX 01 00:59:26
  TRACK 65 AUDIO
    TITLE "2:cjc143_0264"
    INDEX 01 00:59:71
  TRACK 66 AUDIO
    TITLE "0:"
    INDEX 01 01:01:15
  TRACK 67 AUDIO
    TITLE "2:cjc143_0265"
    INDEX 01 01:01:64
  TRACK 68 AUDIO
    TITLE "0:"
    INDEX 01 01:03:08
  TRACK 69 AUDIO
    TITLE "2:cjc143_0266"
    INDEX 01 01:03:53
  TRACK 70 AUDIO
    TITLE "0:"
    INDEX 01 01:05:05
  TRACK 71 AUDIO
    TITLE "2:cjc143_0267"
    INDEX 01 01:05:48
  TRACK 72 AUDIO
    TITLE "0:"
    INDEX 01 01:07:08
  TRACK 73 AUDIO
    TITLE "2:cjc143_0268"
    INDEX 01 01:07:53
  TRACK 74 AUDIO
    TITLE "0:"
    INDEX 01 01:08:60
  TRACK 75 AUDIO
    TITLE "2:cjc143_0269"
    INDEX 01 01:09:30
  TRACK 76 AUDIO
    TITLE "0:"
    INDEX 01 01:10:43
  TRACK 77 AUDIO
    TITLE "2:cjc143_0270"
    INDEX 01 01:11:17
  TRACK 78 AUDIO
    TITLE "0:"
    INDEX 01 01:12:36
  TRACK 79 AUDIO
    TITLE "2:cjc143_0271"
    INDEX 01 01:13:14
  TRACK 80 AUDIO
    TITLE "0:"
    INDEX 01 01:14:31
  TRACK 81 AUDIO
    TITLE "2:cjc143_0272"
    INDEX 01 01:15:05
  TRACK 82 AUDIO
    TITLE "0:"
    INDEX 01 01:16:20
  TRACK 83 AUDIO
    TITLE "2:cjc143_0273"
    INDEX 01 01:16:63
  TRACK 84 AUDIO
    TITLE "0:"
    INDEX 01 01:18:11
  TRACK 85 AUDIO
    TITLE "2:cjc143_0274"
    INDEX 01 01:18:56
  TRACK 86 AUDIO
    TITLE "0:"
    INDEX 01 01:20:08
  TRACK 87 AUDIO
    TITLE "2:cjc143_0275"
    INDEX 01 01:20:49
  TRACK 88 AUDIO
    TITLE "0:"
    INDEX 01 01:21:55
  TRACK 89 AUDIO
    TITLE "2:cjc143_0276"
    INDEX 01 01:22:23
  TRACK 90 AUDIO
    TITLE "0:"
    INDEX 01 01:23:50
  TRACK 91 AUDIO
    TITLE "2:cjc143_0277"
    INDEX 01 01:24:18
  TRACK 92 AUDIO
    TITLE "0:"
    INDEX 01 01:25:31
  TRACK 93 AUDIO
    TITLE "2:cjc143_0278"
    INDEX 01 01:26:09
  TRACK 94 AUDIO
    TITLE "0:"
    INDEX 01 01:27:22
  TRACK 95 AUDIO
    TITLE "2:cjc143_0279"
    INDEX 01 01:27:65
  TRACK 96 AUDIO
    TITLE "0:"
    INDEX 01 01:29:01
  TRACK 97 AUDIO
    TITLE "2:cjc143_0280"
    INDEX 01 01:29:43
  TRACK 98 AUDIO
    TITLE "0:"
    INDEX 01 01:30:54
  TRACK 99 AUDIO
    TITLE "2:cjc143_0281"
    INDEX 01 01:31:22
  TRACK 100 AUDIO
    TITLE "0:"
    INDEX 01 01:32:41
  TRACK 101 AUDIO
    TITLE "2:cjc143_0282"
    INDEX 01 01:33:09
  TRACK 102 AUDIO
    TITLE "0:"
    INDEX 01 01:34:34
  TRACK 103 AUDIO
    TITLE "2:cjc143_0283"
    INDEX 01 01:35:02
  TRACK 104 AUDIO
    TITLE "0:"
    INDEX 01 01:36:21
  TRACK 105 AUDIO
    TITLE "2:cjc143_0284"
    INDEX 01 01:36:64
  TRACK 106 AUDIO
    TITLE "0:"
    INDEX 01 01:38:14
  TRACK 107 AUDIO
    TITLE "2:cjc143_0285"
    INDEX 01 01:38:57
  TRACK 108 AUDIO
    TITLE "0:"
    INDEX 01 01:40:03
  TRACK 109 AUDIO
    TITLE "2:cjc143_0286"
    INDEX 01 01:40:46
  TRACK 110 AUDIO
    TITLE "0:"
    INDEX 01 01:41:69
  TRACK 111 AUDIO
    TITLE "2:cjc143_0287"
    INDEX 01 01:42:37
  TRACK 112 AUDIO
    TITLE "0:"
    INDEX 01 01:43:51
  TRACK 113 AUDIO
    TITLE "2:cjc143_0288"
    INDEX 01 01:44:17
  TRACK 114 AUDIO
    TITLE "0:"
    INDEX 01 01:45:30
  TRACK 115 AUDIO
    TITLE "2:cjc143_0289"
    INDEX 01 01:45:73
  TRACK 116 AUDIO
    TITLE "0:"
    INDEX 01 01:47:42
  TRACK 117 AUDIO
    TITLE "2:cjc143_0290"
    INDEX 01 01:48:11
  TRACK 118 AUDIO
    TITLE "0:"
    INDEX 01 01:49:28
  TRACK 119 AUDIO
    TITLE "2:cjc143_0291"
    INDEX 01 01:49:71
  TRACK 120 AUDIO
    TITLE "0:"
    INDEX 01 01:51:21
  TRACK 121 AUDIO
    TITLE "2:cjc143_0292"
    INDEX 01 01:51:70
  TRACK 122 AUDIO
    TITLE "0:"
    INDEX 01 01:53:06
  TRACK 123 AUDIO
    TITLE "2:cjc143_0293"
    INDEX 01 01:53:49
  TRACK 124 AUDIO
    TITLE "0:"
    INDEX 01 01:54:70
  TRACK 125 AUDIO
    TITLE "2:cjc143_0294"
    INDEX 01 01:55:40
  TRACK 126 AUDIO
    TITLE "0:"
    INDEX 01 01:56:61
  TRACK 127 AUDIO
    TITLE "2:cjc143_0295"
    INDEX 01 01:57:29
  TRACK 128 AUDIO
    TITLE "0:"
    INDEX 01 01:58:52
  TRACK 129 AUDIO
    TITLE "2:cjc143_0296"
    INDEX 01 01:59:22
  TRACK 130 AUDIO
    TITLE "0:"
    INDEX 01 02:00:51
  TRACK 131 AUDIO
    TITLE "2:cjc143_0297"
    INDEX 01 02:01:17
  TRACK 132 AUDIO
    TITLE "0:"
    INDEX 01 02:02:34
  TRACK 133 AUDIO
    TITLE "2:cjc143_0298"
    INDEX 01 02:03:02
  TRACK 134 AUDIO
    TITLE "0:"
    INDEX 01 02:04:33
  TRACK 135 AUDIO
    TITLE "2:cjc143_0299"
    INDEX 01 02:05:05
  TRACK 136 AUDIO
    TITLE "0:"
    INDEX 01 02:06:50
  TRACK 137 AUDIO
    TITLE "2:cjc143_0300"
    INDEX 01 02:07:22
  TRACK 138 AUDIO
    TITLE "0:"
    INDEX 01 02:08:39
  TRACK 139 AUDIO
    TITLE "2:cjc143_0301"
    INDEX 01 02:09:09
  TRACK 140 AUDIO
    TITLE "0:"
    INDEX 01 02:10:26
  TRACK 141 AUDIO
    TITLE "2:cjc143_0302"
    INDEX 01 02:10:69
  TRACK 142 AUDIO
    TITLE "0:"
    INDEX 01 02:12:11
  TRACK 143 AUDIO
    TITLE "2:cjc143_0303"
    INDEX 01 02:12:56
  TRACK 144 AUDIO
    TITLE "0:"
    INDEX 01 02:14:30
  TRACK 145 AUDIO
    TITLE "2:cjc143_0304"
    INDEX 01 02:14:73
  TRACK 146 AUDIO
    TITLE "0:"
    INDEX 01 02:16:19
  TRACK 147 AUDIO
    TITLE "2:cjc143_0305"
    INDEX 01 02:17:10
  TRACK 148 AUDIO
    TITLE "0:"
    INDEX 01 02:18:35
  TRACK 149 AUDIO
    TITLE "2:cjc143_0306"
    INDEX 01 02:19:05
  TRACK 150 AUDIO
    TITLE "0:"
    INDEX 01 02:20:30
  TRACK 151 AUDIO
    TITLE "2:cjc143_0307"
    INDEX 01 02:20:73
  TRACK 152 AUDIO
    TITLE "0:"
    INDEX 01 02:22:43
  TRACK 153 AUDIO
    TITLE "2:cjc143_0308"
    INDEX 01 02:23:17
  TRACK 154 AUDIO
    TITLE "0:"
    INDEX 01 02:24:32
  TRACK 155 AUDIO
    TITLE "2:cjc143_0309"
    INDEX 01 02:25:08
  TRACK 156 AUDIO
    TITLE "0:"
    INDEX 01 02:26:29
  TRACK 157 AUDIO
    TITLE "2:cjc143_0310"
    INDEX 01 02:26:72
  TRACK 158 AUDIO
    TITLE "0:"
    INDEX 01 02:28:12
  TRACK 159 AUDIO
    TITLE "2:cjc143_0311"
    INDEX 01 02:28:55
  TRACK 160 AUDIO
    TITLE "0:"
    INDEX 01 02:30:11
